<svg width="24" height="24" viewBox="0 0 24 24" fill="none" xmlns="http://www.w3.org/2000/svg">
<path fill-rule="evenodd" clip-rule="evenodd" d="M13 23C18.5228 23 23 18.5228 23 13C23 7.47715 18.5228 3 13 3C7.47715 3 3 7.47715 3 13C3 18.5228 7.47715 23 13 23ZM16.5355 9.46447C16.9261 9.85499 16.9261 10.4882 16.5355 10.8787L14.4142 13L16.5355 15.1213C16.9261 15.5118 16.9261 16.145 16.5355 16.5355C16.145 16.9261 15.5118 16.9261 15.1213 16.5355L13 14.4142L10.8787 16.5355C10.4882 16.9261 9.85499 16.9261 9.46447 16.5355C9.07394 16.145 9.07394 15.5118 9.46447 15.1213L11.5858 13L9.46447 10.8787C9.07394 10.4882 9.07394 9.85499 9.46447 9.46447C9.85499 9.07394 10.4882 9.07394 10.8787 9.46447L13 11.5858L15.1213 9.46447C15.5118 9.07394 16.145 9.07394 16.5355 9.46447Z" fill="#FF0000"/>
</svg>
